<?xml version="1.0" encoding="UTF-8"?>
<svg version="1.1" xmlns="http://www.w3.org/2000/svg" width="500" height="500">
<path d="M0 0 C165 0 330 0 500 0 C500 165 500 330 500 500 C335 500 170 500 0 500 C0 335 0 170 0 0 Z " fill="#EC6D20" transform="translate(0,0)"/>
<path d="M0 0 C165 0 330 0 500 0 C500 165 500 330 500 500 C335 500 170 500 0 500 C0 335 0 170 0 0 Z M127 78 C126.44119141 78.40186523 125.88238281 78.80373047 125.30664062 79.21777344 C117.17328389 85.1342422 109.70546673 91.66674952 102.44433594 98.61865234 C101.16198382 99.84508039 99.86702339 101.05829487 98.5703125 102.26953125 C91.97088278 108.59887754 86.48421076 115.7119275 81 123 C80.57041992 123.56348145 80.14083984 124.12696289 79.69824219 124.70751953 C45.85348961 169.29973973 33.41037686 225.69784581 40.68798828 280.76855469 C40.79095215 281.50493164 40.89391602 282.24130859 41 283 C41.09651855 283.69512695 41.19303711 284.39025391 41.29248047 285.10644531 C45.91415085 316.60058664 59.4857093 347.27518696 78 373 C78.40186523 373.55880859 78.80373047 374.11761719 79.21777344 374.69335938 C85.1342422 382.82671611 91.66674952 390.29453327 98.61865234 397.55566406 C99.84508039 398.83801618 101.05829487 400.13297661 102.26953125 401.4296875 C108.11429659 407.52385841 114.61717947 412.64863169 121.33349609 417.73486328 C122.7903695 418.84085771 124.23422546 419.96395711 125.67578125 421.08984375 C161.11819761 448.04371871 205.32093714 461.20298458 249.4375 461.3125 C250.14335236 461.31617584 250.84920471 461.31985168 251.57644653 461.32363892 C261.85958308 461.35164122 271.83780983 460.55089241 282 459 C282.68957794 458.89928192 283.37915588 458.79856384 284.08963013 458.6947937 C294.89855685 457.09115777 305.05023168 454.4238591 315.375 450.875 C316.08923126 450.63289795 316.80346252 450.3907959 317.53933716 450.14135742 C348.4328738 439.64029983 375.0569681 423.25875095 398.45507812 400.49804688 C399.73191664 399.25994935 401.02762426 398.04134381 402.328125 396.828125 C408.62034617 390.84284144 413.78249236 383.91361288 419 377 C419.64654541 376.15260254 419.64654541 376.15260254 420.30615234 375.28808594 C453.82248943 331.12447196 466.37911298 274.63937941 459.74609375 220.02734375 C453.51325338 175.40090604 432.32273946 134.7806754 401.36523438 102.42822266 C400.14565415 101.15237424 398.9390991 99.86410438 397.734375 98.57421875 C391.92411895 92.51648883 385.48245173 87.3985611 378.79541016 82.35546875 C377.64457401 81.48662971 376.4979877 80.61211531 375.35693359 79.73046875 C359.2342688 67.29425348 340.90516544 58.36246981 322 51 C320.4840625 50.38898437 320.4840625 50.38898437 318.9375 49.765625 C256.28443814 25.52485702 180.54639813 39.46236012 127 78 Z " fill="#FEFEFE" transform="translate(0,0)"/>
<path d="M0 0 C2.10058559 -0.00968123 4.20018223 -0.04069247 6.30053711 -0.07226562 C7.64232819 -0.07879848 8.98412625 -0.08404785 10.32592773 -0.08789062 C11.5438501 -0.09723633 12.76177246 -0.10658203 14.01660156 -0.11621094 C18.72285258 0.39370568 21.24039166 2.23185144 24.61889648 5.42773438 C26.80774864 9.07582129 27.09417191 12.14058674 26.30639648 16.24023438 C24.51136392 19.89933922 22.95392091 21.78847315 19.61889648 24.11523438 C16.30639648 25.24023438 16.30639648 25.24023438 7.30639648 25.24023438 C7.30639648 37.78023438 7.30639648 50.32023437 7.30639648 63.24023438 C15.92216528 63.12195828 15.92216528 63.12195828 24.53735352 62.9699707 C26.15939697 62.95873169 26.15939697 62.95873169 27.81420898 62.94726562 C28.91394043 62.93155518 30.01367188 62.91584473 31.14672852 62.8996582 C36.08757951 63.43222559 39.30623989 65.13195274 42.61889648 68.80273438 C46.06340269 73.77813223 45.77114108 78.31043762 45.30639648 84.24023438 C43.50335686 88.84800231 40.18675704 91.32996395 36.30639648 94.24023438 C33.4628528 95.18808227 31.71530677 95.36712591 28.76855755 95.37166214 C27.83273458 95.37550328 26.89691162 95.37934443 25.93273038 95.38330197 C24.38781603 95.38200225 24.38781603 95.38200225 22.81169128 95.38067627 C21.17260842 95.38513295 21.17260842 95.38513295 19.50041276 95.38967967 C15.82009174 95.39838682 12.13980317 95.39987662 8.45947266 95.40136719 C5.82840403 95.40599391 3.19733608 95.41101837 0.56626892 95.41641235 C-6.59488324 95.42999831 -13.7560298 95.43602077 -20.9171927 95.44042301 C-25.38792366 95.44318493 -29.85865245 95.44742219 -34.32938194 95.45192719 C-46.70548905 95.46412008 -59.08159442 95.47441943 -71.45770741 95.47780228 C-72.24991249 95.47802184 -73.04211757 95.47824141 -73.85832886 95.47846763 C-74.65243787 95.47868591 -75.44654687 95.47890418 -76.26471978 95.47912908 C-77.87390824 95.47957254 -79.4830967 95.48001911 -81.09228516 95.48046875 C-82.28960674 95.48080089 -82.28960674 95.48080089 -83.51111665 95.48113975 C-96.44641799 95.48508816 -109.38166302 95.5025434 -122.31694261 95.52582827 C-135.59471451 95.54953692 -148.87245815 95.5620039 -162.15025157 95.56317019 C-169.60633612 95.56408722 -177.06234729 95.5698464 -184.51841164 95.58798981 C-190.86718104 95.60338422 -197.21585438 95.60851518 -203.56463889 95.6002517 C-206.80388752 95.59634284 -210.04290202 95.59891564 -213.28213501 95.61130905 C-216.79424016 95.62396015 -220.30584615 95.61818858 -223.81794739 95.60772705 C-224.84119812 95.61578346 -225.86444886 95.62383986 -226.91870719 95.6321404 C-233.01754455 95.58954987 -237.63332202 95.03156001 -242.33813477 90.74023438 C-246.25237228 85.71325376 -247.12054485 82.05340971 -247.02954102 75.81054688 C-246.47414248 71.56110226 -244.73075851 69.15639078 -241.69360352 66.24023438 C-235.95909726 62.31511923 -230.73093187 61.66902882 -223.9239502 61.75921631 C-222.96973065 61.75579861 -222.0155111 61.75238091 -221.03237581 61.74885964 C-217.8507819 61.74229704 -214.67004094 61.76423048 -211.48852539 61.78613281 C-209.20166036 61.78726164 -206.91479388 61.78662675 -204.62792969 61.78436279 C-198.43012655 61.7832161 -192.23263367 61.80671866 -186.03490257 61.83465862 C-179.55400545 61.85967943 -173.07310106 61.86201483 -166.59216309 61.86676025 C-155.71771724 61.87777638 -144.84338583 61.90275383 -133.96899414 61.93847656 C-122.77108323 61.97522369 -111.57320322 62.00352219 -100.37524414 62.02050781 C-99.33892236 62.02208415 -99.33892236 62.02208415 -98.28166479 62.02369234 C-94.81552553 62.0289127 -91.34938605 62.03396748 -87.88324642 62.03893995 C-59.15328634 62.08036954 -30.42345501 62.15189462 -1.69360352 62.24023438 C-1.69360352 50.03023438 -1.69360352 37.82023437 -1.69360352 25.24023438 C-4.66360352 25.24023438 -7.63360352 25.24023438 -10.69360352 25.24023438 C-14.68263465 23.17184786 -17.3037445 21.02303979 -19.69360352 17.24023438 C-20.49863644 13.17481813 -20.64614392 9.00067017 -18.63891602 5.29101562 C-13.40999101 -1.0981738 -7.58776697 0.02119241 0 0 Z " fill="#FEFBF9" transform="translate(350.693603515625,267.759765625)"/>
<path d="M0 0 C9.25164312 6.41127644 17.0210374 14.41741381 24.94482422 22.36328125 C27.45128543 24.8707277 29.97850946 27.35594249 32.50732422 29.84082031 C34.10236971 31.43066748 35.69616719 33.02176795 37.28857422 34.61425781 C38.04668396 35.35597229 38.8047937 36.09768677 39.58587646 36.86187744 C40.27119446 37.55650085 40.95651245 38.25112427 41.66259766 38.96679688 C42.27117615 39.57332092 42.87975464 40.17984497 43.5067749 40.80474854 C44.67919922 42.59863281 44.67919922 42.59863281 44.50756836 44.65855408 C43.1853274 47.7553034 40.84633327 49.91991535 38.50732422 52.27441406 C37.72817657 53.06853951 37.72817657 53.06853951 36.93328857 53.87870789 C35.83434001 54.99281841 34.73130852 56.10291433 33.62451172 57.20922852 C31.9330973 58.90721957 30.26712038 60.62774274 28.60107422 62.35058594 C27.52963264 63.43082705 26.4567623 64.50965331 25.38232422 65.58691406 C24.886297 66.10449783 24.39026978 66.6220816 23.87921143 67.15534973 C22.43408203 68.57250977 22.43408203 68.57250977 19.67919922 70.59863281 C15.99742787 70.51138214 14.04881864 69.28344252 10.67919922 67.59863281 C-21.66080078 99.93863281 -54.00080078 132.27863281 -87.32080078 165.59863281 C-91.00833921 163.7548636 -92.82149002 162.33364802 -95.64892578 159.46582031 C-96.44814453 158.66015625 -97.24736328 157.85449219 -98.07080078 157.02441406 C-98.89580078 156.18265625 -99.72080078 155.34089844 -100.57080078 154.47363281 C-101.83150391 153.19939453 -101.83150391 153.19939453 -103.11767578 151.89941406 C-105.18995761 149.80358358 -107.25742471 147.70322568 -109.32080078 145.59863281 C-104.69017813 140.04110934 -99.76085538 134.89623069 -94.64086914 129.78930664 C-93.78971024 128.93639542 -92.93855133 128.08348419 -92.06159973 127.20472717 C-89.74538295 124.88488393 -87.42695706 122.56727872 -85.10733485 120.25084138 C-82.67117133 117.81722569 -80.2374668 115.38115282 -77.80335999 112.94548035 C-73.71909066 108.85939707 -69.63272942 104.77541478 -65.54516602 100.69262695 C-60.82739898 95.98030834 -56.11325486 91.26438843 -51.40096182 86.54659635 C-47.34319273 82.48428277 -43.28347007 78.42392925 -39.2221213 74.3651945 C-36.80147931 71.94610699 -34.38150729 69.52635967 -31.9633007 67.10483742 C-29.26839245 64.40738919 -26.57029855 61.71316812 -23.87133789 59.01977539 C-23.07587555 58.22228882 -22.28041321 57.42480225 -21.46084595 56.60314941 C-17.89126505 53.04719556 -14.36192122 49.62841437 -10.32080078 46.59863281 C-10.78486328 45.70144531 -10.78486328 45.70144531 -11.25830078 44.78613281 C-12.89941926 41.40735948 -13.42519687 38.91460069 -13.27783203 35.21191406 C-13.2565625 34.35533203 -13.23529297 33.49875 -13.21337891 32.61621094 C-13.16055965 30.83195076 -13.0957179 29.04800047 -13.01806641 27.26464844 C-12.87496826 20.16804056 -14.39501373 15.15798446 -18.92626953 9.64550781 C-25.03948628 4.63417951 -31.80092904 1.9124395 -39.32080078 -0.40136719 C-29.17171843 -11.65361067 -11.16063955 -6.73911961 0 0 Z " fill="#FEFDFC" transform="translate(278.32080078125,147.4013671875)"/>
<path d="M0 0 C1.63045383 -0.01169993 1.63045383 -0.01169993 3.29384613 -0.02363622 C6.94298506 -0.04360987 10.59108736 -0.02776949 14.24023438 -0.01205444 C16.85352183 -0.01882811 19.46680452 -0.02772983 22.08007812 -0.03860474 C28.44528386 -0.06084259 34.81019488 -0.0560337 41.17541218 -0.04154153 C46.34833 -0.03025136 51.52116519 -0.0287174 56.6940918 -0.03416061 C57.43021682 -0.03492678 58.16634185 -0.03569294 58.92477369 -0.03648233 C60.42017939 -0.03808095 61.91558507 -0.03970201 63.41099072 -0.04134528 C77.43474338 -0.05560437 91.45833265 -0.03920761 105.48205853 -0.01234345 C117.51611564 0.00999553 129.54993161 0.00611544 141.58398438 -0.01693726 C155.55740581 -0.04369251 169.53068403 -0.05423106 183.5041275 -0.03887594 C184.99404396 -0.03728319 186.48396045 -0.03571133 187.97387695 -0.03416061 C188.70695179 -0.03338924 189.44002662 -0.03261786 190.19531584 -0.03182311 C195.36226049 -0.02750526 200.52911433 -0.03479444 205.69604492 -0.04655838 C212.64990912 -0.06204268 219.60330974 -0.05102481 226.55712891 -0.0220871 C229.11254111 -0.01546344 231.66799158 -0.01739561 234.22338867 -0.02840042 C237.70543769 -0.04201577 241.18601418 -0.02498606 244.66796875 0 C245.68498619 -0.01115361 246.70200363 -0.02230722 247.74983978 -0.03379881 C252.42088632 0.03144755 254.6372343 0.12384399 258.49279785 2.95194435 C260.33398438 5.63491821 260.33398438 5.63491821 260.45898438 9.19741821 C259.07408868 13.42904395 258.16094839 14.38582675 254.33398438 16.63491821 C250.80451857 17.223426 247.3152352 17.17442782 243.74389648 17.14285278 C242.66509437 17.14909275 241.58629225 17.15533271 240.47479916 17.16176176 C236.85342101 17.17773937 233.23271148 17.16506826 229.61132812 17.15249634 C227.01774706 17.15791531 224.42416906 17.16503669 221.83059692 17.17373657 C215.51355164 17.19152635 209.19669642 17.18767986 202.87964368 17.17608601 C197.7458269 17.16705373 192.61206341 17.16582679 187.47824097 17.17018127 C186.74766666 17.17079421 186.01709236 17.17140714 185.26437944 17.17203864 C183.78024775 17.17331754 182.29611608 17.17461439 180.81198442 17.17592901 C166.89412451 17.18733614 152.97636998 17.17421904 139.05852735 17.15272754 C127.11546286 17.13485641 115.17255387 17.13796048 103.22949219 17.15640259 C89.36156052 17.17780698 75.49372122 17.1862375 61.62577534 17.17395353 C60.14709283 17.17267933 58.66841032 17.17142185 57.18972778 17.17018127 C56.46218117 17.16956417 55.73463456 17.16894707 54.98504108 17.16831127 C49.85718217 17.16485706 44.72938182 17.17068821 39.60153198 17.18009949 C32.70025765 17.19248711 25.79928225 17.18367201 18.89803696 17.16052246 C16.3619727 17.15522367 13.82588377 17.15676901 11.28982925 17.16557312 C7.83424011 17.17646537 4.37960052 17.16284011 0.92407227 17.14285278 C-0.08516328 17.15177567 -1.09439882 17.16069856 -2.13421726 17.16989183 C-6.44359564 17.12137413 -8.98499573 17.03515088 -12.75758362 14.81801605 C-15.45469923 11.73272548 -15.8088268 9.70503667 -15.66601562 5.63491821 C-11.45427082 -0.50242914 -6.81777607 -0.0747704 0 0 Z " fill="#EC6F23" transform="translate(127.666015625,338.3650817871094)"/>
<path d="M0 0 C2.4729849 1.28473343 4.11566284 2.97534003 6.03344727 4.98901367 C6.73985352 5.72249023 7.44625977 6.4559668 8.17407227 7.21166992 C8.70516602 7.77756836 9.23625977 8.3434668 9.78344727 8.92651367 C8.17546795 12.88421003 5.43392072 15.61557123 2.47875977 18.60229492 C1.95837128 19.13171188 1.43798279 19.66112885 0.90182495 20.20658875 C-0.1965868 21.31946708 -1.29779622 22.42959019 -2.40161133 23.53710938 C-4.09118217 25.23864048 -5.76120388 26.9579376 -7.43139648 28.6784668 C-8.50185864 29.75838639 -9.57343595 30.83720198 -10.64624023 31.91479492 C-11.39331741 32.69117058 -11.39331741 32.69117058 -12.15548706 33.48323059 C-13.59106445 34.90039062 -13.59106445 34.90039062 -16.21655273 36.92651367 C-19.7315418 36.77499555 -21.55104026 35.07627312 -24.02905273 32.67651367 C-24.65424805 32.09385742 -25.27944336 31.51120117 -25.92358398 30.91088867 C-27.21655273 28.92651367 -27.21655273 28.92651367 -27.12280273 26.66333008 C-25.91387947 23.01246 -23.68224267 20.79966418 -21.00952148 18.15307617 C-20.48771805 17.62507416 -19.96591461 17.09707214 -19.42829895 16.55307007 C-18.32618631 15.44387316 -17.21893695 14.33975946 -16.10693359 13.24047852 C-14.40429205 11.55175103 -12.7270742 9.84033356 -11.05053711 8.12573242 C-9.97581683 7.05006139 -8.89969144 5.97579202 -7.82202148 4.90307617 C-7.32083298 4.38862946 -6.81964447 3.87418274 -6.30326843 3.34414673 C-2.774414 -0.09198134 -2.774414 -0.09198134 0 0 Z " fill="#FEFBF9" transform="translate(344.216552734375,212.073486328125)"/>
<path d="M0 0 C1.17539996 0.92652701 2.34010577 1.86663387 3.5 2.8125 C4.1496875 3.33457031 4.799375 3.85664063 5.46875 4.39453125 C7 6 7 6 7 9 C5.05016577 11.16744966 3.1012891 13.17849724 1 15.1875 C0.14148438 16.02571289 0.14148438 16.02571289 -0.734375 16.88085938 C-2.14962788 18.26073093 -3.57397155 19.63126734 -5 21 C-8.32759923 19.44805246 -10.48580485 17.69378051 -13 15 C-11.38989473 10.92623969 -8.46177729 8.23492931 -5.375 5.25 C-4.859375 4.74339844 -4.34375 4.23679688 -3.8125 3.71484375 C-2.54616661 2.47196098 -1.2736856 1.23534724 0 0 Z " fill="#FEFBF9" transform="translate(323,204)"/>
</svg>
