<svg xmlns="http://www.w3.org/2000/svg" xml:space="preserve" width="16" height="16" data-version="2">
    <path d="m1.71 11.48 2.91-7.1h.02l2.91 7.1h-.93l-.81-2.04h-2.4l-.82 2.04ZM3.7 8.72h1.82l-.54-1.36q-.1-.26-.19-.52-.09-.25-.18-.6-.1.35-.18.6-.08.25-.19.52Z" paint-order="stroke"/>
    <rect width="5.84" height="7.1" x="-2.92" y="-3.55" fill="none" rx="0" ry="0" transform="translate(5.13 8.43)"/>
    <path d="M10.39 11.62q-.74 0-1.39-.28-.65-.28-1.15-.77-.49-.49-.77-1.14-.28-.65-.28-1.39 0-.74.28-1.39.28-.65.77-1.14.5-.48 1.15-.76.65-.28 1.39-.28.75 0 1.4.28.65.28 1.14.76.49.49.77 1.14.28.65.28 1.39 0 .74-.28 1.39-.28.65-.77 1.14-.49.49-1.14.77-.65.28-1.4.28m0-.83q.76 0 1.37-.37.61-.37.97-.99.35-.63.35-1.39 0-.76-.35-1.38-.36-.63-.97-1t-1.37-.37q-.75 0-1.36.37-.61.37-.97 1-.36.62-.36 1.38 0 .76.36 1.39.36.62.97.99t1.36.37" paint-order="stroke"/>
    <rect width="7.18" height="7.15" x="-3.59" y="-3.575" fill="none" rx="0" ry="0" transform="translate(10.89 8.545)"/>
</svg>
