<?xml version="1.0" encoding="UTF-8"?>
<svg version="1.1" xmlns="http://www.w3.org/2000/svg" width="500" height="500">
<path d="M0 0 C165 0 330 0 500 0 C500 165 500 330 500 500 C335 500 170 500 0 500 C0 335 0 170 0 0 Z " fill="#FEFEFE" transform="translate(0,0)"/>
<path d="M0 0 C1.35776047 -0.01164688 1.35776047 -0.01164688 2.74295044 -0.02352905 C46.62128424 -0.31975283 90.33804914 13.64773581 122.375 44.375 C123.79039062 45.67824219 123.79039062 45.67824219 125.234375 47.0078125 C155.09776556 75.05834711 169.23325804 116.53342248 173.375 156.375 C173.50648438 157.56738281 173.63796875 158.75976562 173.7734375 159.98828125 C174.08671804 163.45553474 174.25808452 166.8950452 174.375 170.375 C174.40754883 171.30248047 174.44009766 172.22996094 174.47363281 173.18554688 C175.37269442 202.40958993 175.37269442 202.40958993 167.25 212.875 C158.49405888 221.7812577 145.6964084 224.30670981 133.64244843 224.5136652 C131.86220235 224.52510476 130.08191754 224.53130596 128.30163574 224.53321838 C127.31474778 224.53815636 126.32785981 224.54309434 125.31106615 224.54818195 C122.01922801 224.56348438 118.72740926 224.57189783 115.43554688 224.58032227 C113.06986319 224.5899065 110.7041812 224.5999169 108.33850098 224.61032104 C101.92596694 224.6373171 95.51342558 224.65835533 89.10086632 224.67832303 C83.07533045 224.69753333 77.04981509 224.7221329 71.0242973 224.74624526 C59.09368463 224.79384319 47.1630604 224.83712836 35.23242188 224.87768555 C23.64647523 224.91708025 12.06053884 224.95851593 0.47460938 225.00268555 C-0.24016778 225.00540982 -0.95494493 225.00813409 -1.69138199 225.01094092 C-5.27739414 225.02462105 -8.86340614 225.03834119 -12.44941807 225.05208123 C-42.17459049 225.1659234 -71.89978556 225.27268759 -101.625 225.375 C-100.70637289 227.88325966 -99.78242585 230.38935037 -98.85546875 232.89453125 C-98.60019409 233.59324341 -98.34491943 234.29195557 -98.08190918 235.01184082 C-93.12649857 248.35867048 -86.23288634 258.96766775 -76.625 269.375 C-76.03074219 270.05046875 -75.43648438 270.7259375 -74.82421875 271.421875 C-59.30455916 288.2123752 -34.29021513 298.34726788 -11.86499023 299.58203125 C-7.8878442 299.67821011 -3.91539006 299.71007385 0.0625 299.6875 C0.76498871 299.68501251 1.46747742 299.68252502 2.19125366 299.67996216 C30.51692098 299.52511995 55.39970477 291.84815729 77.640625 273.91503906 C87.16536925 266.40331744 98.15657964 262.21949265 110.375 263.375 C122.02051512 265.41080857 130.38065613 270.89082176 137.375 280.375 C142.46232842 289.02345832 142.94389116 299.98463843 140.57421875 309.63671875 C132.44201348 331.01519653 110.43747788 344.65313306 90.54760742 353.77563477 C73.97189007 361.04583424 57.27283795 365.81533645 39.375 368.375 C38.24102783 368.55160156 37.10705566 368.72820312 35.9387207 368.91015625 C26.77850839 370.26216403 17.81276936 370.69777752 8.5625 370.625 C7.49958237 370.62034729 7.49958237 370.62034729 6.41519165 370.61560059 C-42.93537868 370.36475776 -89.56376052 359.5608551 -127.625 326.375 C-128.36145752 325.73908936 -128.36145752 325.73908936 -129.11279297 325.09033203 C-136.39199536 318.77153186 -142.79992802 312.08344331 -148.625 304.375 C-149.02428711 303.85599121 -149.42357422 303.33698242 -149.83496094 302.80224609 C-181.27598796 261.72764912 -188.27347949 208.76436165 -182.54443359 158.50830078 C-177.12720205 118.37029236 -160.86552799 80.61272177 -132.625 51.375 C-131.77421875 50.46105469 -130.9234375 49.54710937 -130.046875 48.60546875 C-110.08064632 27.71266359 -83.34482511 13.89473979 -55.625 6.375 C-54.738125 6.11203125 -53.85125 5.8490625 -52.9375 5.578125 C-49.85014204 4.71857648 -46.76354193 4.02507661 -43.625 3.375 C-42.97241211 3.23674805 -42.31982422 3.09849609 -41.64746094 2.95605469 C-27.8667739 0.18992675 -13.99954464 0.0546381 0 0 Z " fill="#EC6D20" transform="translate(254.625,60.625)"/>
<path d="M0 0 C28.35934489 -0.65818863 56.06313991 6.18857132 77.125 25.8046875 C89.2692655 37.86892489 96.54287679 52.65086679 100.49609375 69.16015625 C101.48609375 72.62515625 101.48609375 72.62515625 102.49609375 76.16015625 C103.48609375 84.57515625 103.48609375 84.57515625 104.49609375 93.16015625 C37.17609375 93.16015625 -30.14390625 93.16015625 -99.50390625 93.16015625 C-93.95628783 62.64825495 -80.55615309 35.48619956 -54.65234375 17.140625 C-37.89663062 6.26812132 -19.90022739 0.90959791 0 0 Z " fill="#FEFDFC" transform="translate(250.50390625,129.83984375)"/>
</svg>
