<?xml version="1.0" encoding="UTF-8"?>
<svg version="1.1" xmlns="http://www.w3.org/2000/svg" width="500" height="500">
<path d="M0 0 C165 0 330 0 500 0 C500 165 500 330 500 500 C335 500 170 500 0 500 C0 335 0 170 0 0 Z " fill="#EC6D20" transform="translate(0,0)"/>
<path d="M0 0 C0.84292603 -0.0038269 1.68585205 -0.00765381 2.55432129 -0.01159668 C4.32935792 -0.01430816 6.10443502 -0.00700057 7.87939453 0.00976562 C10.58587294 0.03118765 13.28969723 0.00993951 15.99609375 -0.015625 C17.72656832 -0.01298159 19.45704125 -0.00785632 21.1875 0 C21.99078735 -0.00809692 22.79407471 -0.01619385 23.6217041 -0.02453613 C28.90449855 0.0629931 31.88389688 1.07122732 36.09375 4.53125 C39.41039822 8.20645478 40.91805791 10.73919066 41.40625 15.71875 C40.95602223 21.21152876 39.40113086 25.18418446 35.50390625 29.1484375 C28.94873445 34.05442232 25.15053822 32.53125 16.09375 32.53125 C16.09375 48.70125 16.09375 64.87125 16.09375 81.53125 C26.92326311 81.37359732 26.92326311 81.37359732 37.75195312 81.17089844 C46.55479143 81.05961677 53.19372729 81.21771649 60.1171875 87.3125 C60.56320312 87.8796875 61.00921875 88.446875 61.46875 89.03125 C62.16097656 89.88203125 62.16097656 89.88203125 62.8671875 90.75 C66.63841159 96.22668212 66.78451226 100.99557635 66.09375 107.53125 C64.29787657 114.82840658 60.40689506 118.70510148 54.09375 122.53125 C51.42700542 123.86462229 49.40463644 123.65914962 46.41674519 123.66267776 C45.20137492 123.66651891 43.98600466 123.67036005 42.733805 123.6743176 C41.37285501 123.67353726 40.01190507 123.67265846 38.6509552 123.67169189 C37.2146618 123.67427409 35.77836911 123.67728684 34.34207743 123.6806953 C30.38095758 123.68878592 26.41985581 123.69055601 22.45872867 123.69129276 C18.19205478 123.69313978 13.92539036 123.70068539 9.65872192 123.70742798 C0.32189255 123.72102713 -9.01493253 123.72703867 -18.35177016 123.73143864 C-24.17949944 123.73419876 -30.00722706 123.73843573 -35.83495522 123.74294281 C-51.96319442 123.75513825 -68.0914323 123.76543656 -84.21967602 123.7688179 C-85.76897374 123.76914725 -85.76897374 123.76914725 -87.34957041 123.76948325 C-88.90262906 123.76981067 -88.90262906 123.76981067 -90.48706263 123.7701447 C-92.58520647 123.77058817 -94.68335031 123.77103473 -96.78149414 123.77148438 C-97.82225152 123.7717058 -98.8630089 123.77192723 -99.93530438 123.77215537 C-116.79840251 123.77610316 -133.66145741 123.79355536 -150.52453884 123.8168439 C-167.82851757 123.84054881 -185.13247461 123.85301938 -202.43646985 123.85418582 C-212.15563484 123.85510314 -221.87474355 123.86086967 -231.59389305 123.87900543 C-239.87062403 123.89439491 -248.14728133 123.89953376 -256.42402389 123.89126733 C-260.64764126 123.88735654 -264.87111022 123.88831123 -269.0947094 123.90232468 C-272.96184989 123.91503813 -276.82873008 123.91388868 -280.69587008 123.90173396 C-282.09431299 123.8997725 -283.49277418 123.90287614 -284.89119139 123.91157833 C-299.85530111 123.99879651 -299.85530111 123.99879651 -305.83203125 118.8828125 C-306.51845703 118.02816406 -306.51845703 118.02816406 -307.21875 117.15625 C-307.92451172 116.30933594 -307.92451172 116.30933594 -308.64453125 115.4453125 C-312.7120154 109.27482571 -312.86525588 102.70257713 -311.90625 95.53125 C-309.26904456 89.0273946 -305.21919049 85.33700133 -298.90625 82.53125 C-295.79199508 81.56421216 -292.9833782 81.40684385 -289.7288475 81.40820217 C-288.67586464 81.40621112 -287.62288177 81.40422007 -286.53799033 81.40216869 C-285.38235721 81.40508153 -284.22672409 81.40799437 -283.03607178 81.41099548 C-281.19334667 81.40971385 -281.19334667 81.40971385 -279.31339478 81.40840632 C-275.90193869 81.40704243 -272.49053978 81.41017368 -269.0790906 81.41518438 C-265.4008716 81.41949809 -261.72265441 81.4180418 -258.04443359 81.4172821 C-251.67113577 81.41675746 -245.29784817 81.41989811 -238.92455292 81.42551994 C-229.70980936 81.43364291 -220.49507076 81.43625098 -211.28032401 81.43750793 C-196.33043456 81.4396972 -181.38055056 81.44635389 -166.43066406 81.45581055 C-151.90722684 81.46498791 -137.3837911 81.47206716 -122.86035156 81.47631836 C-121.96530378 81.47658108 -121.070256 81.47684381 -120.14808556 81.47711449 C-115.65794674 81.47841952 -111.1678079 81.47968323 -106.67766905 81.48092639 C-69.42052536 81.49129509 -32.16338846 81.50918499 5.09375 81.53125 C5.09375 65.36125 5.09375 49.19125 5.09375 32.53125 C1.13375 32.53125 -2.82625 32.53125 -6.90625 32.53125 C-11.88565873 30.43056194 -14.91184308 28.02286038 -17.90625 23.53125 C-19.76705151 17.94884548 -19.84450348 12.47993031 -17.28125 7.15625 C-11.94049455 1.25330977 -7.63886309 -0.07699772 0 0 Z " fill="#FEFCFA" transform="translate(372.90625,273.46875)"/>
<path d="M0 0 C0.33 0 0.66 0 1 0 C1 77.22 1 154.44 1 234 C-76.55 234 -154.1 234 -234 234 C-234 233.67 -234 233.34 -234 233 C-232.71609375 232.90203125 -231.4321875 232.8040625 -230.109375 232.703125 C-217.50838981 231.66726297 -205.32059107 229.83091857 -193 227 C-191.18242187 226.58814453 -191.18242187 226.58814453 -189.328125 226.16796875 C-171.62491342 221.78221837 -153.90963105 215.79355132 -137.890625 207.02246094 C-135.87089201 205.93017765 -133.83011391 204.88810138 -131.78125 203.8515625 C-89.74198436 182.42729642 -55.01896742 148.05629677 -32 107 C-31.6292334 106.34741211 -31.2584668 105.69482422 -30.87646484 105.02246094 C-12.72623374 72.86708773 -2.83989762 36.7038084 0 0 Z " fill="#FEFEFE" transform="translate(499,266)"/>
<path d="M0 0 C0.33 0 0.66 0 1 0 C1.09498779 0.7935791 1.18997559 1.5871582 1.2878418 2.40478516 C9.57287681 70.56333434 38.02350443 133.73491529 93 177 C94.40958984 178.15242188 94.40958984 178.15242188 95.84765625 179.328125 C135.68569825 211.1985586 183.70676781 227.36970128 234 232 C234 232.33 234 232.66 234 233 C156.78 233 79.56 233 0 233 C0 156.11 0 79.22 0 0 Z " fill="#FEFEFE" transform="translate(0,267)"/>
<path d="M0 0 C77.55 0 155.1 0 235 0 C235 76.56 235 153.12 235 232 C234.67 232 234.34 232 234 232 C233.94577881 231.39454346 233.89155762 230.78908691 233.83569336 230.1652832 C228.18831667 170.10792771 203.11958679 117.63210997 162 74 C161.31035156 73.2678125 160.62070312 72.535625 159.91015625 71.78125 C155.15930291 66.88466497 150.03309894 62.54238515 144.67675781 58.32177734 C143.49314429 57.38874245 142.31313833 56.45112233 141.13574219 55.51025391 C130.58413495 47.09748597 119.71063898 39.70336733 108 33 C107.32565918 32.6086084 106.65131836 32.2172168 105.95654297 31.81396484 C88.23305385 21.61611513 68.80255608 14.04065064 49 9 C48.32098633 8.82275391 47.64197266 8.64550781 46.94238281 8.46289062 C31.54695044 4.47920565 15.89050642 1.82733337 0 1 C0 0.67 0 0.34 0 0 Z " fill="#FEFEFE" transform="translate(265,0)"/>
<path d="M0 0 C77.22 0 154.44 0 234 0 C234 0.33 234 0.66 234 1 C233.31824707 1.05945801 232.63649414 1.11891602 231.93408203 1.18017578 C184.00814211 5.52253944 139.68399883 21.09695293 101 50 C100.38672852 50.45487793 99.77345703 50.90975586 99.14160156 51.37841797 C83.08096515 63.36913315 68.45476307 77.30863732 56 93 C55.21625 93.96679688 54.4325 94.93359375 53.625 95.9296875 C36.95427966 116.92838332 24.08080474 140.8113944 15 166 C14.59273682 167.12293457 14.59273682 167.12293457 14.17724609 168.26855469 C6.65984093 189.41386853 2.40394204 211.63375098 1 234 C0.67 234 0.34 234 0 234 C0 156.78 0 79.56 0 0 Z " fill="#FEFEFE" transform="translate(0,0)"/>
<path d="M0 0 C13.70565677 9.88371616 25.62079503 22.49109075 37.5925293 34.34765625 C39.3058243 36.039085 41.0253684 37.72420449 42.75073242 39.40332031 C45.26492599 41.85104588 47.75925703 44.31750642 50.25 46.7890625 C51.02684647 47.53807831 51.80369293 48.28709412 52.6040802 49.05880737 C53.30619125 49.76369293 54.00830231 50.46857849 54.73168945 51.19482422 C55.35501663 51.80784393 55.97834381 52.42086365 56.62055969 53.05245972 C57.82421875 54.984375 57.82421875 54.984375 57.70323181 57.50115967 C56.75931681 60.16772324 55.82380411 61.50114957 53.85253906 63.50537109 C53.22808899 64.14888519 52.60363892 64.79239929 51.96026611 65.45541382 C51.28115173 66.13270538 50.60203735 66.80999695 49.90234375 67.5078125 C49.20534363 68.21338287 48.50834351 68.91895325 47.79022217 69.64590454 C46.31578003 71.13181846 44.83608693 72.61253779 43.3515625 74.08837891 C41.0787857 76.35482077 38.83396999 78.64663474 36.58984375 80.94140625 C35.15396663 82.38182792 33.71651827 83.82068537 32.27734375 85.2578125 C31.60632629 85.94724945 30.93530884 86.6366864 30.24395752 87.34701538 C25.56246622 91.93696087 25.56246622 91.93696087 22.17089844 92.15478516 C19.39164223 90.76862679 17.22147561 88.94718851 14.82421875 86.984375 C-1.72028465 103.50554524 -18.26194489 120.02955741 -34.80020046 136.55698204 C-42.47880749 144.230427 -50.15835143 151.90292994 -57.84008789 159.57324219 C-64.5334277 166.25663244 -71.22502341 172.94176308 -77.91450745 179.6290127 C-81.45844335 183.17164196 -85.00326212 186.71337778 -88.55016899 190.25303268 C-91.88549736 193.58159657 -95.21849676 196.91247444 -98.54969025 200.24517632 C-99.7755485 201.47075843 -101.00227021 202.69547756 -102.22989845 203.91928673 C-103.90027728 205.58472167 -105.56757868 207.25317677 -107.2341156 208.92245483 C-107.72535319 209.41077958 -108.21659078 209.89910434 -108.72271436 210.40222681 C-111.27184254 212.95039951 -111.27184254 212.95039951 -113.17578125 215.984375 C-119.21667363 213.27321197 -123.23955296 208.1120237 -127.48828125 203.171875 C-131.78381483 198.18003346 -136.47938223 193.59572856 -141.17578125 188.984375 C-135.63645453 182.23557407 -129.4715486 176.14628414 -123.29541016 169.99047852 C-122.09235502 168.78770582 -120.88952077 167.58471216 -119.68688965 166.3815155 C-116.43751727 163.13185736 -113.18508082 159.8852819 -109.93206835 156.63926816 C-106.52700162 153.24047178 -103.12478488 149.83882494 -99.72225952 146.43748474 C-93.28584144 140.00416914 -86.8468795 133.57340595 -80.40699041 127.14356512 C-73.07248263 119.82025215 -65.74082942 112.4940842 -58.40940976 105.16767991 C-43.33469855 90.10340855 -28.2564219 75.04271032 -13.17578125 59.984375 C-13.4826033 59.37358597 -13.78942535 58.76279694 -14.10554504 58.13349915 C-16.37777721 53.57066621 -17.41307267 50.30551807 -17.1953125 45.16015625 C-17.16630859 44.04833984 -17.13730469 42.93652344 -17.10742188 41.79101562 C-17.02864524 39.48066488 -16.93770232 37.1706936 -16.83398438 34.86132812 C-16.62898836 25.74163373 -18.4405982 19.42367694 -24.3515625 12.3984375 C-32.68633789 5.4197773 -40.83876077 2.22330808 -51.17578125 -1.015625 C-37.53044896 -14.20611288 -14.29084007 -9.07020108 0 0 Z " fill="#FEFEFD" transform="translate(286.17578125,117.015625)"/>
<path d="M0 0 C1.79355493 -0.00576172 1.79355493 -0.00576172 3.62334329 -0.01163983 C4.9620898 -0.0108595 6.30083625 -0.0099807 7.63958263 -0.00901413 C9.05255263 -0.01159634 10.4655219 -0.01460909 11.87849015 -0.01801753 C15.77506185 -0.02610776 19.67161516 -0.02787822 23.56819427 -0.028615 C27.76529969 -0.03046205 31.96239548 -0.03800761 36.15949535 -0.04475021 C45.34330273 -0.05834843 54.52710575 -0.06436057 63.71092153 -0.06876087 C69.44214963 -0.07152079 75.17337604 -0.07575768 80.904603 -0.08026505 C96.76348579 -0.09245967 112.62236721 -0.10275859 128.48125458 -0.10614014 C129.49681718 -0.1063597 130.51237979 -0.10657927 131.55871702 -0.10680549 C132.57675069 -0.10702377 133.59478435 -0.10724204 134.64366752 -0.10746694 C136.70669289 -0.10791041 138.76971827 -0.10835697 140.83274364 -0.10880661 C141.85608196 -0.10902804 142.87942027 -0.10924947 143.93376883 -0.10947761 C160.52015777 -0.11342666 177.1065028 -0.1308831 193.69287477 -0.15416613 C210.70982072 -0.17786135 227.72674463 -0.19034115 244.74370736 -0.19150805 C254.30295971 -0.19242585 263.86215486 -0.19820434 273.42139149 -0.21632767 C281.56057226 -0.23170399 289.69967816 -0.23686376 297.83887068 -0.22858956 C301.99338209 -0.22467427 306.14774262 -0.22565531 310.3022356 -0.23964691 C314.10389146 -0.2523334 317.90528224 -0.25123491 321.70693745 -0.2390562 C323.73718615 -0.23615702 325.76743919 -0.24807466 327.79765207 -0.26047826 C329.00117859 -0.25388841 330.20470512 -0.24729857 331.44470215 -0.24050903 C332.48367199 -0.24110612 333.52264183 -0.24170321 334.5930956 -0.24231839 C337.89583905 0.19571573 339.74365245 1.16023079 342.41111279 3.13142776 C344.89497338 6.85721865 344.79153399 8.71854179 344.41111279 13.13142776 C342.75971973 16.67012717 341.69506049 17.94212929 338.41111279 20.13142776 C335.83212054 20.3855781 335.83212054 20.3855781 332.667943 20.39148998 C330.86095131 20.40208837 330.86095131 20.40208837 329.01745474 20.41290087 C327.67378973 20.41064932 326.33012503 20.4082028 324.98646069 20.40558243 C323.56437598 20.41003268 322.14229376 20.41534601 320.7202152 20.42145115 C316.80308433 20.43566713 312.88603267 20.43729377 308.9688797 20.43685424 C304.74792168 20.43849928 300.5269966 20.45155983 296.30605602 20.46304703 C287.07272184 20.48591979 277.8394106 20.49381995 268.60605192 20.49887347 C262.84349156 20.50212758 257.08093789 20.50864828 251.31838131 20.51587486 C235.37110197 20.53544306 219.42382887 20.55184621 203.47653675 20.5547514 C202.45557404 20.55493897 201.43461133 20.55512654 200.38271036 20.55531979 C198.31287281 20.55568605 196.24303525 20.55604974 194.1731977 20.5564109 C193.14569405 20.55659371 192.11819041 20.55677652 191.05955029 20.55696487 C190.03079625 20.55714542 189.00204221 20.55732597 187.9421138 20.55751199 C171.26521944 20.56105513 154.58845408 20.58808524 137.91160448 20.62546276 C120.79970064 20.66350927 103.68786088 20.6829086 86.57591379 20.68321091 C76.96409827 20.68379627 67.35243666 20.69233913 57.74066067 20.72120857 C49.55754668 20.74567353 41.37464274 20.75303848 33.19150211 20.73796105 C29.0146085 20.73077223 24.83813008 20.73173375 20.66128254 20.75437164 C16.83915221 20.77488901 13.01775815 20.77243024 9.19563644 20.7514968 C7.81138782 20.74798791 6.42708687 20.75297101 5.04290695 20.76720124 C-6.60265407 20.87922928 -6.60265407 20.87922928 -9.90449429 17.73558521 C-12.46683188 13.77408049 -12.50555202 10.68997705 -11.58888721 6.13142776 C-8.26753427 0.81726306 -6.04504331 0.0072559 0 0 Z " fill="#EC6D20" transform="translate(83.58888721466064,365.8685722351074)"/>
<path d="M0 0 C3.09304099 1.48004033 5.15979199 3.44457541 7.57861328 5.86694336 C8.92052734 7.17598633 8.92052734 7.17598633 10.28955078 8.51147461 C12.20361328 11.05444336 12.20361328 11.05444336 12.01570129 12.99467468 C11.06533793 15.40516303 9.94110511 16.71012957 8.12426758 18.55371094 C7.47656906 19.21732132 6.82887054 19.8809317 6.1615448 20.56465149 C5.45741959 21.26897812 4.75329437 21.97330475 4.02783203 22.69897461 C3.30626419 23.42815598 2.58469635 24.15733734 1.84126282 24.90861511 C0.31431834 26.44636055 -1.21661843 27.98015052 -2.7512207 29.51025391 C-5.10349802 31.8615569 -7.43364302 34.23337269 -9.76318359 36.60717773 C-11.24820951 38.09740882 -12.73449583 39.58638519 -14.22216797 41.07397461 C-14.92022049 41.78842239 -15.61827301 42.50287018 -16.33747864 43.2389679 C-16.99463364 43.88681747 -17.65178864 44.53466705 -18.32885742 45.20214844 C-18.90320023 45.77854568 -19.47754303 46.35494293 -20.06929016 46.94880676 C-21.79638672 48.05444336 -21.79638672 48.05444336 -23.84977722 47.86454773 C-26.8604836 46.61160696 -28.79086325 44.57214793 -31.10888672 42.30444336 C-32.01251953 41.44334961 -32.91615234 40.58225586 -33.84716797 39.69506836 C-35.79638672 37.05444336 -35.79638672 37.05444336 -35.60394287 34.60946655 C-34.72883978 31.84073191 -33.8440059 30.58650566 -31.82470703 28.53344727 C-31.20025696 27.88993317 -30.57580688 27.24641907 -29.93243408 26.58340454 C-29.2533197 25.90611298 -28.57420532 25.22882141 -27.87451172 24.53100586 C-27.1775116 23.82543549 -26.48051147 23.11986511 -25.76239014 22.39291382 C-24.287948 20.9069999 -22.8082549 19.42628057 -21.32373047 17.95043945 C-19.05095367 15.68399758 -16.80613796 13.39218362 -14.56201172 11.09741211 C-13.1261346 9.65699044 -11.68868624 8.21813299 -10.24951172 6.78100586 C-9.24298553 5.74685043 -9.24298553 5.74685043 -8.21612549 4.69180298 C-3.50025138 0.06814703 -3.50025138 0.06814703 0 0 Z " fill="#FEFDFC" transform="translate(371.79638671875,200.945556640625)"/>
<path d="M0 0 C3.18086518 1.50946511 5.29869906 3.07941825 7.75 5.625 C8.67039062 6.57246094 8.67039062 6.57246094 9.609375 7.5390625 C10.06828125 8.02117187 10.5271875 8.50328125 11 9 C5.72898586 15.41069287 -0.09128152 21.18590512 -6 27 C-8.85114555 25.69555432 -11.04747746 24.29447569 -13.3125 22.125 C-13.84488281 21.63257813 -14.37726563 21.14015625 -14.92578125 20.6328125 C-16 19 -16 19 -15.77832031 17.12744141 C-14.82869937 14.53177112 -13.59636935 13.25360374 -11.62109375 11.328125 C-10.94755859 10.66425781 -10.27402344 10.00039062 -9.58007812 9.31640625 C-8.87302734 8.63449219 -8.16597656 7.95257813 -7.4375 7.25 C-6.72658203 6.55261719 -6.01566406 5.85523438 -5.28320312 5.13671875 C-3.52869286 3.4175342 -1.76756648 1.70574128 0 0 Z " fill="#FEFAF8" transform="translate(343,191)"/>
</svg>
